<?xml version="1.0" encoding="UTF-8" standalone="no"?>
<!-- Created with Inkscape (http://www.inkscape.org/) -->

<svg
   width="87.304245mm"
   height="84.056374mm"
   viewBox="0 0 87.304245 84.056374"
   version="1.1"
   id="svg1"
   xml:space="preserve"
   xmlns:inkscape="http://www.inkscape.org/namespaces/inkscape"
   xmlns:sodipodi="http://sodipodi.sourceforge.net/DTD/sodipodi-0.dtd"
   xmlns:xlink="http://www.w3.org/1999/xlink"
   xmlns="http://www.w3.org/2000/svg"
   xmlns:svg="http://www.w3.org/2000/svg"><sodipodi:namedview
     id="namedview1"
     pagecolor="#ffffff"
     bordercolor="#000000"
     borderopacity="0.25"
     inkscape:showpageshadow="2"
     inkscape:pageopacity="0.0"
     inkscape:pagecheckerboard="0"
     inkscape:deskcolor="#d1d1d1"
     inkscape:document-units="mm"><inkscape:page
       x="0"
       y="0"
       width="87.304245"
       height="84.056374"
       id="page2"
       margin="0"
       bleed="0" /></sodipodi:namedview><defs
     id="defs1"><linearGradient
       id="linearGradient1767"
       inkscape:collect="always"><stop
         style="stop-color:#00c23e;stop-opacity:1;"
         offset="0"
         id="stop1767" /><stop
         style="stop-color:#008630;stop-opacity:1;"
         offset="1"
         id="stop1768" /></linearGradient><linearGradient
       inkscape:collect="always"
       xlink:href="#linearGradient1767"
       id="linearGradient1768"
       x1="82.494507"
       y1="66.75061"
       x2="99.150444"
       y2="88.35022"
       gradientUnits="userSpaceOnUse"
       gradientTransform="matrix(1.3862661,0,0,1.3862661,48.126668,42.468207)" /></defs><g
     inkscape:label="Capa 1"
     inkscape:groupmode="layer"
     id="layer1"
     transform="translate(-142.28362,-126.88528)"><path
       id="path1766"
       style="opacity:1;fill:url(#linearGradient1768);fill-opacity:1;fill-rule:evenodd;stroke:none;stroke-width:0.367359;stroke-opacity:1"
       d="m 185.93575,126.88528 a 43.652134,42.028168 0 0 0 -43.65212,42.02792 43.652134,42.028168 0 0 0 8.00623,24.26002 l -5.53454,16.60364 17.49195,-5.56142 a 43.652134,42.028168 0 0 0 23.68848,6.72621 43.652134,42.028168 0 0 0 43.65212,-42.02845 43.652134,42.028168 0 0 0 -43.65212,-42.02792 z" /><path
       id="path6-2"
       d="m 202.70672,175.50524 c -0.19834,-0.33079 -0.72218,-0.529 -1.50453,-0.92517 -0.78577,-0.39547 -4.64853,-2.31444 -5.3675,-2.57708 -0.71852,-0.26358 -1.24602,-0.39641 -1.76645,0.39547 -0.52361,0.79258 -2.02928,2.57778 -2.48884,3.10678 -0.4566,0.52993 -0.91343,0.59438 -1.69921,0.1982 -0.78667,-0.39547 -3.31815,-1.23511 -6.31626,-3.93088 -2.33292,-2.10326 -3.90924,-4.69495 -4.36971,-5.48775 -0.4557,-0.79165 -0.0451,-1.22028 0.34375,-1.61575 0.35425,-0.35677 0.78646,-0.92517 1.179,-1.38626 0.39345,-0.46455 0.52385,-0.79627 0.78577,-1.32529 0.26193,-0.52899 0.13153,-0.98984 -0.067,-1.38625 -0.19491,-0.39524 -1.76645,-4.29507 -2.42183,-5.88299 -0.65082,-1.58353 -1.30597,-1.52442 -1.76644,-1.52442 -0.45683,0 -1.30438,0.13817 -1.30438,0.13817 0,0 -1.57428,0.19819 -2.29279,0.99078 -0.71876,0.79187 -2.74713,2.71061 -2.74713,6.60672 0,3.89865 2.8114,7.6682 3.20395,8.19372 0.39322,0.52994 5.43087,8.79205 13.41487,11.9642 7.98378,3.1717 7.98378,2.11346 9.42402,1.9797 1.4375,-0.12866 4.6451,-1.91526 5.30025,-3.76583 0.65538,-1.85058 0.65538,-3.43781 0.46048,-3.76607 m -16.17637,-34.62387 c -14.8551,0 -26.93483,12.19022 -26.93483,27.17867 0,5.94375 1.90413,11.45282 5.12996,15.93496 l -3.36351,10.09136 10.3486,-3.34392 c 4.25188,2.83718 9.34629,4.49326 14.81978,4.49326 14.84874,0 26.93211,-12.19114 26.93211,-27.17566 0,-14.98845 -12.08337,-27.17867 -26.93211,-27.17867 m 32.03381,27.17867 c 0,17.85021 -14.34198,32.32427 -32.03381,32.32427 -5.61847,0 -10.89708,-1.45904 -15.48587,-4.02222 l -17.73718,5.73186 5.78147,-17.3423 c -2.91741,-4.87205 -4.59519,-10.5856 -4.59519,-16.69161 0,-17.85392 14.34222,-32.32705 32.03677,-32.32705 17.69183,0 32.03381,14.47313 32.03381,32.32705"
       style="fill:#ffffff;fill-opacity:1;fill-rule:evenodd;stroke:none;stroke-width:0.229878"
       inkscape:export-filename="path5.svg"
       inkscape:export-xdpi="96"
       inkscape:export-ydpi="96" /></g></svg>
